<?xml version="1.0" encoding="UTF-8"?>
<!DOCTYPE svg PUBLIC "-//W3C//DTD SVG 1.1//EN" "http://www.w3.org/Graphics/SVG/1.1/DTD/svg11.dtd">
<svg version="1.1" xmlns="http://www.w3.org/2000/svg" xmlns:xlink="http://www.w3.org/1999/xlink" x="0" y="0" width="580" height="208" viewBox="0, 0, 580, 208">
  <g id="Layer_1">
    <path d="M570.16,116.312 C561.66,121.819 541.077,127.913 538.827,127.319 C532.857,125.742 529.827,125.069 528.827,126.069 C527.827,127.069 511.827,121.569 496.327,126.819 C495.327,125.319 492.327,122.569 492.327,122.569 C493.077,122.069 571.847,112.91 570.16,116.312 M439.077,153.569 C439.077,153.569 369.494,165.402 376.16,162.194 C382.827,158.985 413.16,142.216 415.16,135.435 C415.634,133.827 416.335,132.211 417.289,130.721 C417.075,128.742 416.905,126.763 416.829,124.777 L416.728,123.037 L416.695,121.296 L416.641,117.816 C416.691,115.497 416.697,113.183 416.852,110.873 C417.095,106.255 417.542,101.655 418.229,97.097 C418.91,92.54 419.774,88.011 420.952,83.569 C420.099,88.083 419.569,92.644 419.222,97.208 C418.872,101.772 418.76,106.349 418.852,110.907 C418.864,113.188 419.025,115.463 419.138,117.733 L419.44,121.131 L419.595,122.826 L419.818,124.515 C419.922,125.468 420.057,126.414 420.199,127.36 C422.132,125.726 424.605,124.561 427.696,124.229 C427.674,123.702 427.657,123.176 427.641,122.65 C427.513,118.243 427.691,113.866 427.961,109.507 C428.23,105.147 428.657,100.808 429.175,96.484 C429.7,92.163 430.299,87.853 431.043,83.569 C430.629,87.896 430.363,92.232 430.172,96.565 C429.987,100.9 429.895,105.234 429.96,109.559 C430.024,113.881 430.182,118.199 430.635,122.464 C430.696,123.036 430.77,123.608 430.838,124.181 C432.28,124.279 433.827,124.535 435.494,124.985 C447.827,128.319 453.494,127.652 465.494,125.985 C477.494,124.319 481.494,121.605 484.827,124.129 C488.147,126.644 492.463,131.696 502.051,129.798 C501.779,129.799 501.607,129.793 501.577,129.78 L502.16,129.78 L502.051,129.798 C504.076,129.796 511.9,129.486 512.577,129.78 C517.032,131.714 529.327,135.435 529.327,135.435 C529.327,135.435 483.577,154.569 439.077,153.569 M406.015,111.417 C406.213,106.719 406.597,102.037 407.208,97.39 C407.814,92.743 408.593,88.12 409.661,83.569 C408.92,88.183 408.475,92.833 408.204,97.482 C407.927,102.132 407.88,106.791 408.015,111.43 C408.129,116.07 408.499,120.695 409.088,125.275 C409.614,129.867 410.578,134.38 411.616,138.841 L407.706,139.684 C406.957,134.982 406.304,130.277 406.101,125.552 C405.833,120.834 405.795,116.115 406.015,111.417 M456.827,111.516 C458.375,111.516 459.631,112.771 459.631,114.319 C459.631,115.868 458.375,117.123 456.827,117.123 C455.278,117.123 454.023,115.868 454.023,114.319 C454.023,112.771 455.278,111.516 456.827,111.516 M485.509,105.454 C486.254,105.454 486.858,106.059 486.858,106.804 C486.858,107.549 486.254,108.152 485.509,108.152 C484.763,108.152 484.16,107.549 484.16,106.804 C484.16,106.059 484.763,105.454 485.509,105.454 M530.677,107.034 C530.748,106.747 530.931,106.482 531.072,106.23 C531.278,105.998 531.442,105.754 531.704,105.587 C532.176,105.205 532.856,105.138 533.327,105.319 C532.856,105.597 532.56,105.853 532.423,106.246 C532.258,106.593 532.21,106.981 532.212,107.352 C532.218,108.099 532.464,108.762 532.858,109.182 C533.255,109.592 533.907,109.875 534.755,109.947 C534.958,109.997 535.175,110.005 535.4,110.007 L536.088,110.045 C536.56,110.044 537.04,110.013 537.577,110.069 C537.203,110.426 536.778,110.718 536.333,110.995 C535.85,111.178 535.383,111.464 534.825,111.519 C533.784,111.761 532.373,111.561 531.417,110.566 C530.481,109.572 530.298,108.154 530.677,107.034 M396.865,139.684 C396.115,134.982 395.462,130.277 395.259,125.552 C394.992,120.834 394.955,116.115 395.173,111.417 C395.373,106.719 395.755,102.037 396.367,97.39 C396.972,92.743 397.751,88.12 398.82,83.569 C398.079,88.183 397.633,92.833 397.362,97.482 C397.085,102.132 397.039,106.791 397.173,111.43 C397.288,116.07 397.657,120.695 398.247,125.275 C398.772,129.867 399.736,134.38 400.775,138.841 L396.865,139.684 z M378.862,143.997 C377.991,144.742 377.108,145.478 376.215,146.199 L373.467,148.26 C371.636,149.647 369.729,150.907 367.83,152.187 C365.944,153.492 363.98,154.661 362.032,155.86 L359.105,157.655 L356.119,159.339 C354.125,160.459 352.138,161.594 350.113,162.65 C346.079,164.802 341.961,166.784 337.851,168.784 C333.677,170.648 329.519,172.546 325.273,174.247 C323.163,175.123 321.015,175.918 318.874,176.721 L315.661,177.921 L312.399,179.001 C310.222,179.712 308.064,180.466 305.841,181.046 C303.633,181.66 301.437,182.302 299.185,182.773 L295.827,183.507 C294.695,183.705 293.556,183.878 292.42,184.041 C290.171,184.468 287.84,184.462 285.577,184.569 C287.814,184.042 290.033,183.684 292.195,182.962 L295.446,182.013 L298.651,180.895 C300.798,180.207 302.909,179.384 305.017,178.57 C307.134,177.787 309.233,176.944 311.324,176.082 C313.422,175.248 315.501,174.358 317.582,173.473 C319.665,172.593 321.75,171.723 323.802,170.769 C325.856,169.82 327.956,168.982 330.001,168.014 L336.159,165.163 L342.295,162.267 C344.347,161.313 346.344,160.252 348.387,159.278 C350.436,158.316 352.444,157.276 354.46,156.252 C356.48,155.231 358.496,154.205 360.493,153.146 C362.502,152.107 364.501,151.045 366.474,149.942 C368.463,148.866 370.459,147.793 372.388,146.618 L375.334,144.925 L378.199,143.108 C380.167,141.957 381.927,140.557 383.827,139.262 C382.236,140.88 380.653,142.576 378.862,143.997 M83.532,154.98 C79.469,160.666 74.865,165.949 69.897,170.835 C64.92,175.714 59.59,180.206 54.011,184.347 C48.431,188.478 42.585,192.289 36.327,195.319 C41.68,190.902 46.91,186.463 52.056,181.929 C57.195,177.392 62.219,172.754 67.096,167.982 C71.945,163.183 76.654,158.256 81.068,153.064 C85.475,147.863 89.61,142.438 93.327,136.569 C91.112,143.169 87.577,149.301 83.532,154.98 M55.077,162.194 C55.836,162.194 56.452,162.811 56.452,163.569 C56.452,164.328 55.836,164.944 55.077,164.944 C54.318,164.944 53.702,164.328 53.702,163.569 C53.702,162.811 54.318,162.194 55.077,162.194 M67.577,100.131 C69.106,100.131 70.348,101.373 70.348,102.902 C70.348,104.434 69.106,105.674 67.577,105.674 C66.047,105.674 64.806,104.434 64.806,102.902 C64.806,101.373 66.047,100.131 67.577,100.131 M78.41,137.652 C78.41,140.414 76.172,142.652 73.41,142.652 C70.649,142.652 68.41,140.414 68.41,137.652 C68.41,134.892 70.649,132.652 73.41,132.652 C76.172,132.652 78.41,134.892 78.41,137.652 M253.994,122.527 C255.582,122.527 256.869,123.815 256.869,125.402 C256.869,126.99 255.582,128.277 253.994,128.277 C252.406,128.277 251.119,126.99 251.119,125.402 C251.119,123.815 252.406,122.527 253.994,122.527 M293.327,132.204 C294.218,132.204 294.942,132.928 294.942,133.819 C294.942,134.711 294.218,135.435 293.327,135.435 C292.435,135.435 291.712,134.711 291.712,133.819 C291.712,132.928 292.435,132.204 293.327,132.204 M333.16,125.402 C335.138,125.402 336.744,127.007 336.744,128.985 C336.744,130.965 335.138,132.569 333.16,132.569 C331.181,132.569 329.577,130.965 329.577,128.985 C329.577,127.007 331.181,125.402 333.16,125.402 M229.756,144.539 C228,144.224 226.512,143.954 225.426,143.954 C225.054,143.954 224.729,143.986 224.458,144.059 C218.346,143.129 108.777,126.482 103.189,126.153 C101.086,126.029 96.896,125.001 93.084,123.928 C113.654,126.717 178.493,127.819 179.16,127.819 C181.07,127.819 198.168,127.838 210.467,128.485 C214.827,128.715 217.026,128.941 218.208,129.064 C219.539,129.201 219.817,129.231 220.131,128.664 C220.223,128.498 220.377,128.22 221.104,127.735 C223.992,125.811 229.327,126.244 230.436,127.632 C230.806,128.093 231.817,128.65 233.721,129.676 C238.728,132.372 247.109,136.888 244.545,142.013 C242.165,146.774 234.993,145.483 229.756,144.539 M245.082,165.764 C244.003,165.616 241.972,160.429 241.658,157.598 C241.378,155.091 256.219,141.651 259.355,140.278 C260.741,139.752 283.882,138.943 307.916,138.787 C310.72,138.77 313.381,138.761 315.908,138.761 C343.75,138.761 355,139.816 356.154,140.891 C354.97,143.267 346.284,143.728 340.511,144.034 C334.633,144.347 332.535,144.534 332.056,145.413 C331.192,146.995 314.228,160.116 309.795,161.678 C307.267,161.153 270.074,153.433 264.979,151.787 C259.17,149.905 247.37,160.782 245.696,164.968 C245.491,165.482 245.265,165.787 245.082,165.764 M329.468,18.863 C333.306,22.138 336.81,25.773 340.01,29.642 C343.22,33.504 346.16,37.583 348.769,41.874 C350.07,44.021 351.268,46.233 352.365,48.502 C352.896,49.644 353.417,50.794 353.854,51.984 C354.292,53.164 354.702,54.398 354.827,55.652 C354.508,55.087 354.287,54.541 353.903,54.034 C353.56,53.515 353.255,52.993 352.872,52.499 C352.499,52.001 352.158,51.491 351.802,50.991 L350.682,49.514 C349.228,47.526 347.682,45.604 346.181,43.659 C343.147,39.787 340.062,35.972 336.936,32.199 C333.816,28.421 330.619,24.715 327.295,21.123 C323.98,17.512 320.556,14.023 316.827,10.652 C321.472,12.627 325.623,15.622 329.468,18.863 M398.976,60.227 L391.317,60.138 C380.756,60.164 370.166,60.539 359.629,61.636 C349.091,62.69 338.587,64.235 328.191,66.373 C317.818,68.56 307.441,71.065 297.577,75.069 C307.252,70.602 317.542,67.597 327.854,64.911 C338.194,62.275 348.688,60.221 359.265,58.658 C361.018,58.392 362.775,58.151 364.533,57.923 C340.023,11.233 302.87,-3.126 308.827,4.319 C314.827,11.819 304.327,62.819 290.327,76.819 C278.894,88.252 219.78,98.102 196.309,101.896 L187.836,103.76 L168.494,108.152 L183.977,102.949 C179.513,101.059 172.611,95.319 169.827,95.319 C166.327,95.319 165.827,104.319 164.827,108.319 C163.827,112.319 145.078,111.581 117.078,114.081 C104.078,112.081 38.077,37.819 2.077,28.569 C0.827,30.819 15.327,58.069 13.577,63.319 C11.827,68.569 26.327,59.819 29.327,64.819 C32.327,69.819 20.077,69.819 20.577,73.069 C21.077,76.319 54.827,101.319 50.16,126.985 C45.494,152.652 38.327,177.319 30.16,195.652 C25.877,205.268 24.494,205.652 29.16,206.319 C63.827,199.319 105.16,135.652 111.16,133.652 C117.16,131.652 218.16,147.985 218.494,149.319 C218.827,150.652 214.494,162.319 214.494,162.319 C219.16,163.652 234.494,159.652 236.827,159.985 C239.16,160.319 242.494,170.652 244.16,173.319 C245.827,175.985 260.827,159.985 262.494,158.985 C264.16,157.985 301.16,165.985 302.16,166.319 C303.16,166.652 270.494,182.319 273.16,187.985 C295.717,193.025 324.145,182.862 339.794,176.028 C341.793,174.978 343.792,173.924 345.785,172.868 C352.14,169.492 358.476,166.076 364.78,162.602 C371.082,159.126 377.358,155.601 383.559,151.948 C386.657,150.119 389.739,148.262 392.768,146.321 C394.287,145.358 395.777,144.353 397.249,143.319 C398.685,142.251 400.186,141.219 401.327,139.819 C400.25,141.273 398.79,142.382 397.399,143.52 C395.972,144.623 394.523,145.7 393.047,146.736 C390.103,148.82 387.103,150.823 384.086,152.798 C378.048,156.741 371.931,160.56 365.785,164.329 C363.105,165.974 360.416,167.603 357.722,169.226 C368.664,167.594 388.919,166.062 391.494,166.319 C394.827,166.652 401.827,177.319 405.16,189.319 C413.16,189.652 435.494,174.985 438.494,158.985 C492.494,156.652 532.827,139.985 531.827,136.652 C530.827,133.319 530.827,130.985 530.827,129.319 C530.827,127.652 535.494,130.652 537.827,131.319 C540.16,131.985 572.16,124.985 577.827,111.652 C557.708,79.843 459.476,64.523 398.976,60.227" fill="#0B0B09"/>
  </g>
</svg>
