<?xml version="1.0" encoding="UTF-8"?>
<!DOCTYPE svg PUBLIC "-//W3C//DTD SVG 1.1//EN" "http://www.w3.org/Graphics/SVG/1.1/DTD/svg11.dtd">
<svg version="1.1" xmlns="http://www.w3.org/2000/svg" xmlns:xlink="http://www.w3.org/1999/xlink" x="0" y="0" width="600" height="288" viewBox="0, 0, 600, 288">
  <g id="Layer_1">
    <path d="M589.313,80.292 C588.824,81.33 588.314,82.41 587.785,83.529 C587.27,84.658 586.688,85.799 585.954,86.897 C585.256,88.021 584.539,89.174 583.804,90.353 C583.085,91.547 582.094,92.583 581.219,93.737 C579.507,96.084 577.288,98.128 575.121,100.28 C572.712,102.159 570.356,104.212 567.629,105.74 L565.626,106.945 C564.955,107.333 564.224,107.616 563.527,107.955 C562.103,108.569 560.746,109.33 559.284,109.806 C557.83,110.295 556.377,110.751 554.943,111.193 C553.489,111.568 552.016,111.779 550.59,112.073 C549.168,112.401 547.738,112.505 546.337,112.565 C544.937,112.603 543.58,112.822 542.248,112.699 C539.589,112.556 537.086,112.463 534.833,111.915 C533.703,111.695 532.623,111.486 531.597,111.287 C530.594,110.96 529.641,110.652 528.748,110.36 C527.867,110.07 527.042,109.795 526.278,109.541 C525.529,109.266 524.892,108.905 524.289,108.639 C521.923,107.48 520.567,106.817 520.567,106.817 C520.567,106.817 522.021,107.214 524.565,107.905 C525.203,108.07 525.894,108.32 526.669,108.469 C527.44,108.606 528.272,108.751 529.161,108.91 C530.039,109.069 530.976,109.239 531.961,109.417 C532.965,109.496 534.02,109.581 535.121,109.667 C537.307,109.959 539.691,109.773 542.188,109.75 C543.438,109.776 544.707,109.459 546.005,109.329 C547.301,109.155 548.63,109.036 549.938,108.652 C551.254,108.316 552.61,108.063 553.939,107.651 C555.25,107.168 556.571,106.688 557.914,106.236 C559.259,105.779 560.503,105.044 561.813,104.459 C562.453,104.136 563.124,103.871 563.744,103.501 L565.575,102.352 C568.122,100.977 570.336,99.098 572.613,97.391 C574.625,95.373 576.869,93.64 578.558,91.48 C579.438,90.439 580.391,89.482 581.171,88.42 C581.954,87.356 582.718,86.314 583.463,85.301 C584.252,84.312 584.873,83.252 585.473,82.228 C586.096,81.209 586.698,80.227 587.273,79.283 C588.396,77.371 589.193,75.491 590.052,73.889 C590.925,72.289 591.434,70.789 591.951,69.583 C592.978,67.158 593.564,65.771 593.564,65.771 C593.564,65.771 593.278,67.241 592.7,69.825 C592.384,71.109 592.137,72.722 591.463,74.443 C590.83,76.176 590.274,78.218 589.313,80.292 M467.08,138.656 C465.482,139.133 463.526,139.774 461.195,140.43 C458.849,141.027 456.15,141.713 453.129,142.48 C450.098,143.218 446.694,143.828 443.004,144.605 C441.16,144.975 439.212,145.214 437.201,145.53 C435.183,145.802 433.107,146.212 430.933,146.385 C422.271,147.453 412.387,147.92 401.608,147.453 C390.832,147.008 379.166,145.495 367.119,142.61 C355.069,139.764 342.603,135.69 330.222,130.381 C317.827,125.103 305.363,118.937 293.078,112.098 C280.791,105.274 268.52,98.049 256.308,90.818 C244.129,83.553 231.904,76.36 219.745,69.71 C207.5,63 195.385,56.74 183.436,50.956 C171.499,45.215 159.865,39.87 148.615,35.359 C137.367,30.86 126.589,26.959 116.424,24.176 C106.272,21.37 96.76,19.531 88.26,19.049 C79.775,18.549 72.296,19.439 66.588,21.578 C60.87,23.69 56.994,26.79 54.768,29.214 C53.684,30.45 52.858,31.431 52.388,32.154 C51.887,32.853 51.627,33.214 51.627,33.214 C51.627,33.214 51.856,32.833 52.3,32.095 C52.708,31.335 53.445,30.296 54.452,28.942 C56.509,26.336 60.17,22.733 66.008,20.152 C71.796,17.53 79.544,16.016 88.343,16.083 C97.152,16.089 107.035,17.39 117.516,19.849 C128.021,22.241 139.172,25.664 150.706,29.922 C162.243,34.172 174.243,39.073 186.38,44.712 C198.497,50.325 211.004,56.376 223.344,62.987 C235.763,69.673 248.07,76.812 260.333,84.016 C272.563,91.254 284.692,98.584 296.814,105.396 C308.953,112.163 320.997,118.577 333.019,123.946 C345.03,129.312 356.981,133.658 368.583,136.83 C380.196,139.962 391.44,141.92 401.917,142.872 C403.226,142.989 404.523,143.107 405.806,143.224 C407.092,143.282 408.364,143.342 409.623,143.402 C412.141,143.522 414.602,143.652 417.005,143.623 C419.405,143.615 421.752,143.684 424.031,143.619 C426.307,143.519 428.521,143.423 430.667,143.331 C434.954,143.097 438.956,142.649 442.666,142.308 C446.355,141.797 449.77,141.433 452.82,140.917 C455.876,140.384 458.604,139.908 460.976,139.495 C463.344,139.042 465.34,138.572 466.972,138.233 C470.229,137.533 471.965,137.16 471.965,137.16 C471.965,137.16 470.265,137.68 467.08,138.656 M281.79,229.35 C183.735,214.729 138.154,167.924 125.151,151.898 C132.1,153.823 139.304,155.84 146.753,157.951 C171.88,187.979 206.87,209.307 252.571,222.214 C261.792,224.819 271.463,227.065 281.564,228.986 C281.64,229.109 281.713,229.227 281.79,229.35 M285.813,235.388 C247.476,230.396 210.36,219.518 176.407,203.149 C142.557,186.827 111.408,164.572 91.648,142.775 C100.147,145.05 109.215,147.505 118.812,150.147 C124.831,158.541 158.969,201.707 238.439,224.151 C252.41,228.095 267.804,231.39 284.673,233.75 C285.049,234.297 285.428,234.841 285.813,235.388 M290.208,241.265 C232.745,236.86 184.062,217.902 151.445,201.38 C105.836,178.287 74.832,151.974 60.253,134.486 C67.699,136.428 75.897,138.578 84.79,140.943 C104.549,164.519 138.084,189.074 174.685,206.721 C193.056,215.576 212.333,222.846 232.231,228.466 C250.722,233.688 269.748,237.469 289.059,239.786 C289.438,240.28 289.82,240.773 290.208,241.265 M294.729,246.675 C173.95,244.027 61.698,170.086 29.106,126.392 C33.319,127.494 38.205,128.763 43.918,130.247 C47.04,131.054 50.369,131.916 53.889,132.832 C67.049,150.461 99.787,179.668 149.652,204.919 C168.538,214.482 192.75,224.857 220.92,232.811 C242.971,239.039 267.451,243.773 293.687,245.485 C294.032,245.883 294.38,246.28 294.729,246.675 M269.273,251.608 C218.972,248.865 156.998,231.233 111.391,206.675 C31.499,163.663 10.854,129.895 8.242,120.512 C10.866,121.465 15.499,122.784 23.16,124.824 C45.296,158.048 118.094,211.923 207.016,237.035 C235.142,244.978 264.896,250.034 295.15,250.653 C285.813,251.714 277.138,252.038 269.273,251.608 M190,134.596 C186.577,133.631 184.465,130.497 185.283,127.601 C186.101,124.702 189.541,123.138 192.963,124.105 C196.387,125.071 198.501,128.204 197.682,131.101 C196.863,133.998 193.424,135.564 190,134.596 M181.804,168.07 C185.952,169.293 190.154,170.536 194.412,171.806 C199.188,180.184 206.592,188.288 215.35,195.542 C197.76,185.084 187.412,174.865 181.804,168.07 M175.359,166.181 C181.496,174.896 199.778,195.84 242.233,213.138 C246.091,215.114 249.958,216.875 253.776,218.409 C211.154,206.387 178.01,186.983 153.708,159.93 C160.728,161.932 167.951,164.018 175.359,166.181 M6.083,96.822 C33.553,96.795 148.962,147.088 183.603,164.467 C142.442,152.347 106.772,142.647 78.769,135.247 L78.807,135.123 C10.307,114.018 5.999,100.157 6.083,96.822 M501.824,91.677 C500.894,90.933 499.639,90.145 498.425,88.979 C497.818,88.397 497.135,87.808 496.474,87.125 C495.849,86.404 495.191,85.645 494.504,84.856 C493.897,83.997 493.264,83.102 492.606,82.179 C492.055,81.188 491.428,80.182 490.913,79.082 C489.893,76.886 488.923,74.475 488.41,71.865 C487.839,69.274 487.464,66.531 487.508,63.752 C487.469,60.965 487.788,58.162 488.246,55.395 C488.751,52.635 489.533,49.948 490.382,47.342 C491.287,44.755 492.367,42.282 493.535,39.963 C495.862,35.315 498.635,31.316 501.302,28.159 C502.653,26.59 503.957,25.212 505.213,24.089 C506.428,22.934 507.606,22.049 508.593,21.363 C509.582,20.678 510.424,20.205 510.994,19.946 C511.572,19.674 511.877,19.531 511.877,19.531 C511.877,19.531 511.609,19.738 511.106,20.128 C510.582,20.507 509.929,21.153 509.094,21.967 C508.27,22.796 507.323,23.852 506.313,25.122 C505.283,26.375 504.242,27.888 503.115,29.523 C502.04,31.201 500.903,33.032 499.821,35.034 C498.712,37.018 497.699,39.193 496.685,41.444 C495.665,43.697 494.853,46.112 494.011,48.548 C493.258,51.014 492.564,53.539 492.142,56.103 C491.688,58.66 491.337,61.24 491.336,63.781 C491.271,65.055 491.392,66.304 491.395,67.549 C491.544,68.776 491.575,70.017 491.834,71.192 C491.942,71.784 492.051,72.373 492.157,72.954 C492.304,73.527 492.452,74.095 492.597,74.655 C492.837,75.799 493.281,76.848 493.626,77.902 C494,78.948 494.518,79.9 494.918,80.875 C495.421,81.801 495.909,82.696 496.374,83.555 C496.923,84.372 497.448,85.156 497.947,85.901 C498.467,86.634 499.027,87.287 499.522,87.929 C500.52,89.204 501.558,90.178 502.327,91.071 C504.047,92.704 505.027,93.632 505.027,93.632 C505.027,93.632 503.856,92.962 501.824,91.677 M595.724,48.627 C578.506,90.879 539.68,58.365 535.486,74.983 L534.669,76.487 C534.909,72.645 533.38,70.047 531.473,69.477 C539.94,57.933 500.357,39.05 528.06,5.392 C489.749,13.433 461.634,72.873 501.255,101.759 C501.901,102.229 515.077,91.953 523.819,79.252 C489.857,146.953 375.842,144.738 289.438,86.985 C200.496,27.539 99.489,-8.023 64.77,5.516 C32.898,17.945 18.777,63.286 5.151,90.758 C3.483,92.202 2.445,93.95 2.178,95.945 C2.154,96.131 2.155,96.323 2.143,96.509 C1.929,96.895 1.714,97.295 1.5,97.669 C1.684,97.563 1.911,97.481 2.132,97.392 C2.506,105.431 14.646,114.688 37.239,124.418 C20.897,120.173 9.556,117.156 8.071,116.169 C7.277,115.527 6.309,115.374 5.473,115.755 C4.944,115.997 4.05,116.658 3.995,118.36 C3.705,127.281 22.47,163.302 109.512,210.166 C132.788,222.699 160.283,233.445 188.351,241.372 C215.849,249.136 243.898,254.194 269.055,255.564 C278.783,256.095 289.686,255.507 301.504,253.832 C323.42,275.308 354.124,290.34 388.825,283.259 C388.914,281.879 388.929,280.527 388.935,279.174 C389.079,252.796 374.253,232.034 362.447,221.439 C346.482,207.109 284.33,212.039 280.441,186.914 C277.172,182.878 270.996,183.748 268.293,185.965 C268.243,185.35 268.204,184.741 268.18,184.138 C267.892,180.529 277.325,177.282 281.653,182.62 C285.54,207.749 347.694,202.816 363.66,217.148 C367.435,220.533 371.519,224.973 375.324,230.288 C426.714,208.142 480.603,169.812 516.399,113.136 C562.913,139.679 607.674,88.651 595.724,48.627" fill="#1A1919"/>
  </g>
</svg>
